<?xml version="1.0" encoding="utf-8"?>
<!-- Generator: Adobe Illustrator 27.0.0, SVG Export Plug-In . SVG Version: 6.00 Build 0)  -->
<svg version="1.1" id="Layer_2_00000030462507978000950570000015823647826535115439_"
	 xmlns="http://www.w3.org/2000/svg" xmlns:xlink="http://www.w3.org/1999/xlink" x="0px" y="0px" viewBox="0 0 640.8 133.9"
	 style="enable-background:new 0 0 640.8 133.9;" xml:space="preserve">
<style type="text/css">
	.st0{fill:#7F7EFF;}
	.st1{fill:#A1E8AF;}
</style>
<g id="Layer_1-2">
	<g>
		<g>
			<polygon class="st0" points="55.4,70 52.1,78.7 52.1,101.3 80.2,101.3 83.4,92.6 83.4,70 			"/>
			<polygon class="st1" points="57.9,17.9 29,17.9 0,94.4 0,101.3 29,101.3 57.9,24.9 			"/>
		</g>
		<g>
			<path class="st0" d="M152,44.6c-3.5-2-7.4-3-11.9-3c-3.7,0-6.8,0.5-9.2,1.4c-2.4,0.9-4.4,2.1-5.8,3.5c-1.5,1.4-2.6,2.9-3.4,4.4
				h-1.9v-33h-12.3v83.4h12.3V71.6c0-6.4,1.5-11.2,4.6-14.5c3.1-3.3,7.1-5,12.2-5c4.4,0,7.9,1.2,10.5,3.6c2.5,2.4,3.8,6.2,3.8,11.3
				v34.3h12.3V66c0-5.1-1-9.4-3-13C158.2,49.4,155.5,46.6,152,44.6z"/>
			<path class="st0" d="M229.3,87.5V63.3c0-7.2-2.2-12.7-6.6-16.6c-4.4-3.9-10.4-5.8-18-5.8c-4.9,0-9.1,0.8-12.6,2.4
				c-3.5,1.6-6.3,3.7-8.4,6.3c-2.1,2.6-3.6,5.5-4.6,8.6l11.4,3.7c0.7-3.2,2.2-5.8,4.4-7.7c2.2-2,5.4-3,9.7-3c4.3,0,7.5,1,9.5,3.1
				c2.1,2.1,3.1,4.8,3.1,8.2v3.8h-17.9c-4.3,0-8.1,0.7-11.5,2c-3.4,1.4-6,3.4-8,6c-1.9,2.7-2.9,6-2.9,10.1c0,4,1,7.3,2.9,10.1
				c1.9,2.8,4.6,4.9,7.9,6.3c3.3,1.4,7,2.1,11.3,2.1c4.1,0,7.3-0.6,9.8-1.7c2.5-1.2,4.3-2.5,5.6-4.1c1.3-1.6,2.2-3,2.9-4.2h1.8v0.4
				c0,2.5,0.9,4.4,2.6,5.8c1.7,1.4,4,2.1,6.8,2.1h9.2V91h-5C230.4,91,229.3,89.9,229.3,87.5z M217.3,77c0,4.9-1.5,8.8-4.5,11.6
				c-3,2.8-7,4.2-11.9,4.2c-3.6,0-6.4-0.8-8.5-2.4c-2.1-1.6-3.1-3.7-3.1-6.4c0-2.7,1-4.7,3-6.1c2-1.4,4.6-2.1,7.9-2.1h17.2V77z"/>
			<path class="st0" d="M286.5,69.4c-3.5-1.3-7.3-2.3-11.6-3l-4.2-0.7c-3.2-0.6-5.7-1.4-7.6-2.5c-1.9-1.1-2.8-2.9-2.8-5.2
				c0-2.2,1-4,2.9-5.2c1.9-1.2,4.5-1.8,7.9-1.8c3.4,0,6.3,0.7,8.6,2.2c2.3,1.5,3.8,4,4.5,7.6l11.4-3.2c-1.3-5.1-4-9.1-8.3-12.1
				c-4.3-3-9.7-4.5-16.3-4.5c-6.8,0-12.3,1.5-16.4,4.6c-4.1,3.1-6.2,7.4-6.2,12.9c0,3.7,1,6.8,2.9,9.2c1.9,2.4,4.5,4.3,7.7,5.6
				c3.3,1.4,6.9,2.4,10.8,3.1L274,77c3.9,0.7,6.8,1.6,8.8,2.7c2,1.1,3,2.9,3,5.2c0,2.4-1.1,4.3-3.2,5.8c-2.1,1.5-5.1,2.3-9,2.3
				c-2.6,0-5.1-0.4-7.3-1.2c-2.3-0.8-4.2-2.1-5.7-4.1c-1.5-1.9-2.6-4.5-3.2-7.7L246,82.8c1.1,6.8,4.1,11.8,9.1,15.1
				c4.9,3.3,11.1,5,18.6,5c7.4,0,13.3-1.6,17.6-4.9c4.4-3.3,6.6-7.8,6.6-13.7c0-4-1-7.1-3-9.5C292.7,72.5,290,70.6,286.5,69.4z"/>
			<path class="st0" d="M356.6,44.6c-3.5-2-7.4-3-11.9-3c-3.7,0-6.8,0.5-9.2,1.4c-2.4,0.9-4.4,2.1-5.8,3.5c-1.5,1.4-2.6,2.9-3.4,4.4
				h-1.9v-33h-12.3v83.4h12.3V71.6c0-6.4,1.5-11.2,4.6-14.5c3.1-3.3,7.1-5,12.2-5c4.4,0,7.9,1.2,10.5,3.6c2.5,2.4,3.8,6.2,3.8,11.3
				v34.3h12.3V66c0-5.1-1-9.4-3-13C362.8,49.4,360.1,46.6,356.6,44.6z"/>
			<path class="st0" d="M426.7,44.6c-4.3-2.5-9.2-3.8-14.8-3.8c-5.8,0-10.9,1.3-15.3,3.8c-4.4,2.5-7.8,6-10.3,10.6
				c-2.5,4.6-3.7,9.9-3.7,16v1.4c0,6,1.3,11.3,3.8,15.9c2.5,4.6,6,8.1,10.4,10.6c4.4,2.5,9.7,3.8,15.6,3.8c5.3,0,9.7-0.8,13.1-2.5
				c3.4-1.7,6.2-3.7,8.3-6.2c2.1-2.5,3.7-4.8,4.8-7L428.4,82c-1.3,2.7-3.1,5.1-5.4,7.1c-2.3,2.1-5.8,3.1-10.4,3.1
				c-4.9,0-9-1.5-12.3-4.6c-3.3-3.1-5-7.2-5.2-12.3h45.2v-4.6c0-6-1.2-11.2-3.6-15.6C434.2,50.6,430.9,47.1,426.7,44.6z M395.2,65.9
				c0.6-4.4,2.4-7.9,5.3-10.4c2.9-2.5,6.7-3.8,11.3-3.8c4.6,0,8.3,1.3,11.2,3.8c2.9,2.5,4.4,6,4.8,10.4H395.2z"/>
			<path class="st0" d="M501,50.5h-1.9c-0.9-1.6-2.1-3.1-3.8-4.6c-1.7-1.5-3.8-2.7-6.4-3.6c-2.6-1-5.8-1.4-9.6-1.4
				c-4.9,0-9.5,1.2-13.6,3.6c-4.1,2.4-7.4,5.8-9.9,10.4c-2.5,4.5-3.7,9.9-3.7,16.2v1.8c0,6.4,1.3,11.8,3.8,16.3
				c2.5,4.5,5.8,7.9,10,10.3c4.1,2.4,8.6,3.6,13.5,3.6c5.7,0,10.1-1,13.2-3.1c3.1-2.1,5.3-4.4,6.9-6.9h1.9v8.3h12V17.9H501V50.5z
				 M501.1,72.5c0,6.4-1.7,11.2-5.2,14.7c-3.5,3.4-7.8,5.1-13.2,5.1c-5.2,0-9.6-1.7-13-5.1c-3.5-3.4-5.2-8.3-5.2-14.7v-1.1
				c0-6.3,1.7-11.1,5.2-14.5c3.5-3.4,7.8-5.1,13-5.1c5.4,0,9.8,1.7,13.2,5.1c3.4,3.4,5.1,8.3,5.1,14.5V72.5z"/>
			<path class="st0" d="M538.8,83.5c-2.8,0-5.1,0.9-7,2.7c-1.9,1.8-2.8,4.1-2.8,7c0,2.9,0.9,5.2,2.8,7c1.9,1.8,4.2,2.7,7,2.7
				c2.8,0,5.1-0.9,7-2.7c1.9-1.8,2.8-4.2,2.8-7c0-2.8-0.9-5.1-2.8-6.9C543.9,84.4,541.5,83.5,538.8,83.5z"/>
			<rect x="564.2" y="17.9" class="st0" width="12.3" height="83.4"/>
			<path class="st0" d="M637.5,42.5v29.8c0,6.4-1.5,11.2-4.6,14.5c-3.1,3.3-7.1,5-12.1,5c-4.5,0-8.1-1.2-10.6-3.6
				c-2.5-2.4-3.8-6.2-3.8-11.3V42.5h-12.3v35.4c0,5,1,9.3,3,13c2,3.7,4.7,6.5,8.2,8.5c3.5,2,7.5,3,11.9,3c3.7,0,6.8-0.5,9.3-1.4
				c2.5-1,4.4-2.2,5.9-3.6c1.5-1.5,2.6-3,3.3-4.6h1.9v18.1c0,2.4-1.1,3.6-3.3,3.6h-32.8v10.7H638c3.7,0,6.5-1.1,8.6-3.2
				c2.1-2.1,3.2-5,3.2-8.6V42.5H637.5z"/>
		</g>
	</g>
</g>
</svg>
